<?xml version="1.0" standalone="no"?>
<!DOCTYPE svg PUBLIC "-//W3C//DTD SVG 20010904//EN"
 "http://www.w3.org/TR/2001/REC-SVG-20010904/DTD/svg10.dtd">
<svg version="1.0" xmlns="http://www.w3.org/2000/svg"
 width="869.000000pt" height="810.000000pt" viewBox="0 0 869.000000 810.000000"
 preserveAspectRatio="xMidYMid meet">

<g transform="translate(0.000000,810.000000) scale(0.100000,-0.100000)"
fill="#000000" stroke="none">
<path d="M5100 7922 c0 -13 68 -73 155 -137 136 -101 415 -346 538 -475 114
-119 269 -305 339 -405 81 -117 186 -316 235 -445 22 -60 73 -230 73 -246 0
-4 -31 -4 -68 -1 -108 10 -247 -19 -527 -110 -341 -111 -512 -206 -763 -422
-259 -224 -498 -635 -591 -1016 -48 -198 -56 -271 -56 -510 0 -214 2 -240 29
-365 117 -559 397 -975 859 -1277 461 -301 1058 -415 1560 -298 87 20 225 63
257 80 14 8 72 36 130 64 306 144 583 396 817 741 81 120 181 338 238 520 41
132 49 171 76 349 18 123 20 176 17 360 -12 579 -200 1147 -563 1701 -263 401
-555 719 -965 1050 -130 105 -131 106 -320 233 -293 197 -487 297 -850 440
-82 32 -257 85 -430 130 -179 46 -190 49 -190 39z"/>
<path d="M1932 5939 c-341 -38 -680 -180 -967 -403 -163 -126 -386 -385 -503
-581 -141 -238 -243 -541 -283 -845 -19 -140 -16 -469 5 -615 50 -348 126
-602 279 -934 203 -439 485 -831 868 -1207 458 -449 959 -777 1503 -983 179
-69 570 -181 630 -181 l29 0 -44 38 c-24 22 -84 70 -134 107 -332 251 -684
610 -869 885 -103 153 -195 338 -252 509 -29 86 -51 159 -48 162 2 4 48 8 102
8 119 0 294 41 542 126 330 114 561 255 777 477 358 366 554 819 588 1358 13
218 -46 599 -122 785 -147 359 -312 591 -574 805 -166 136 -371 262 -520 321
-30 12 -67 27 -84 34 -78 34 -245 78 -395 106 -184 33 -388 44 -528 28z"/>
</g>
</svg>
