<?xml version="1.0" standalone="no"?>
<!DOCTYPE svg PUBLIC "-//W3C//DTD SVG 20010904//EN"
 "http://www.w3.org/TR/2001/REC-SVG-20010904/DTD/svg10.dtd">
<svg version="1.0" xmlns="http://www.w3.org/2000/svg"
 width="1232.000000pt" height="945.000000pt" viewBox="0 0 1232.000000 945.000000"
 preserveAspectRatio="xMidYMid meet">

<g transform="translate(0.000000,945.000000) scale(0.100000,-0.100000)"
fill="#000000" stroke="none">
<path d="M133 9228 c2 -7 224 -347 492 -755 l488 -743 1599 0 c1520 0 1600 -1
1593 -17 -3 -10 -339 -595 -746 -1301 l-740 -1282 235 -358 c129 -196 335
-510 458 -697 123 -187 231 -341 239 -343 9 -2 19 4 22 13 14 34 2272 3942
2290 3963 l20 22 2512 0 c1994 0 2514 3 2527 13 18 14 978 1475 978 1488 0 5
-2556 9 -5986 9 -4785 0 -5985 -3 -5981 -12z"/>
<path d="M7038 6193 c-33 -40 -828 -1261 -828 -1273 0 -10 156 -12 818 -10
1077 5 1402 2 1402 -10 0 -12 -795 -1228 -821 -1255 -19 -20 -36 -20 -1090
-25 l-1071 -5 -379 -655 c-208 -360 -379 -660 -379 -666 0 -12 1391 -2139
1414 -2162 11 -12 18 -8 39 20 22 29 1122 1704 3280 4995 373 567 680 1039
683 1047 6 15 -137 16 -1523 16 -1445 0 -1531 -1 -1545 -17z"/>
</g>
</svg>
